<svg id="Chat" xmlns="http://www.w3.org/2000/svg" width="71" height="72" viewBox="0 0 71 72">
  <rect id="Rectangle_17368" data-name="Rectangle 17368" width="71" height="72" fill="#c99e9f"/>
  <path id="Path_852" data-name="Path 852" d="M219.932,100.9c-1.923-.7-3.773-1.373-5.616-2.051l-5.077-1.872a4.143,4.143,0,0,0-3.11.028,26.047,26.047,0,0,1-14.44,1.742c-10.826-1.872-18.37-7.876-21.556-18.513-2.579-8.588-.592-16.484,5.243-23.268a26.015,26.015,0,0,1,18.179-9.049,26.364,26.364,0,0,1,25.837,14.146c4.328,8.592,3.721,17.079-1.411,25.211a4.037,4.037,0,0,0-.576,3.432c.859,3.2,1.624,6.424,2.424,9.637C219.868,100.5,219.888,100.666,219.932,100.9ZM183.417,70.3a4.069,4.069,0,1,0,.036,0Zm12.288,0a4.072,4.072,0,1,0,.036,0Zm12.267,0a4.075,4.075,0,1,0,.034,0Z" transform="translate(-160.18 -38.819)" fill="#fff"/>
</svg>
