<svg xmlns="http://www.w3.org/2000/svg" width="48" height="48" viewBox="0 0 48 48">
  <path id="Path_454" data-name="Path 454" d="M29.658,12.6c-1.476-.068-1.92-.08-5.658-.08s-4.18.014-5.656.08c-3.8.174-5.566,1.972-5.74,5.74-.066,1.476-.082,1.918-.082,5.656s.016,4.18.082,5.658c.174,3.758,1.934,5.566,5.74,5.74,1.474.066,1.918.082,5.656.082s4.182-.014,5.658-.082c3.8-.172,5.564-1.976,5.74-5.74.066-1.476.08-1.92.08-5.658s-.014-4.18-.08-5.656C35.222,14.578,33.452,12.778,29.658,12.6ZM24,31.19A7.189,7.189,0,1,1,31.19,24,7.19,7.19,0,0,1,24,31.19Zm7.474-12.982a1.68,1.68,0,1,1,1.68-1.68A1.68,1.68,0,0,1,31.474,18.208ZM28.666,24A4.666,4.666,0,1,1,24,19.334,4.666,4.666,0,0,1,28.666,24ZM24,0A24,24,0,1,0,48,24,24,24,0,0,0,24,0ZM37.916,29.772c-.23,5.09-3.064,7.91-8.142,8.144C28.28,37.984,27.8,38,24,38s-4.278-.016-5.772-.084c-5.088-.234-7.91-3.058-8.144-8.144C10.016,28.28,10,27.8,10,24s.016-4.278.084-5.772c.234-5.088,3.058-7.91,8.144-8.142C19.722,10.016,20.2,10,24,10s4.28.016,5.774.086c5.09.234,7.914,3.064,8.142,8.142C37.984,19.722,38,20.2,38,24S37.984,28.28,37.916,29.772Z" fill="#121212"/>
</svg>
