<svg xmlns="http://www.w3.org/2000/svg" width="28" height="28" viewBox="0 0 28 28">
  <path id="Path_770" data-name="Path 770" d="M14,0A14,14,0,1,0,28,14,14.01,14.01,0,0,0,14,0m-.636,1.342V13.364H7.646A19.943,19.943,0,0,1,9.615,4.842c1.044-1.994,2.37-3.21,3.748-3.5m1.273,0c1.379.29,2.7,1.506,3.748,3.5a19.938,19.938,0,0,1,1.969,8.521H14.636Zm-4.464.517a10.569,10.569,0,0,0-1.68,2.4,21.047,21.047,0,0,0-2.118,9.108H1.293a12.712,12.712,0,0,1,8.879-11.5m7.656,0a12.712,12.712,0,0,1,8.88,11.5H21.627a21.047,21.047,0,0,0-2.118-9.108,10.57,10.57,0,0,0-1.681-2.4M1.293,14.636H6.374a21.049,21.049,0,0,0,2.118,9.108,10.577,10.577,0,0,0,1.68,2.4,12.712,12.712,0,0,1-8.879-11.5m6.353,0h5.717V26.658c-1.379-.29-2.7-1.506-3.748-3.5a19.944,19.944,0,0,1-1.969-8.521m6.99,0h5.717a19.94,19.94,0,0,1-1.969,8.521c-1.044,1.994-2.37,3.21-3.748,3.5Zm6.99,0h5.081a12.713,12.713,0,0,1-8.88,11.5,10.577,10.577,0,0,0,1.681-2.4,21.049,21.049,0,0,0,2.118-9.108"/>
</svg>
